<svg width="100" height="100" viewBox="0 0 100 100" fill="none" xmlns="http://www.w3.org/2000/svg">
<rect width="100" height="100" fill="#F5F5F5" fill-opacity="0.45"/>
<rect width="100" height="100" rx="50" fill="#DA373D"/>
<path d="M22.4766 26.3281L22.7578 30.0898H21.7031L21.1055 27.7461H16.1016V42.7344L18.6797 43.0039V44H11.3555V43.0039L13.9102 42.7344V27.7461H8.92969L8.29688 30.0898H7.26562L7.54688 26.3281H22.4766ZM35.9648 43.3906C34.8242 43.9766 34 44.2695 33.4922 44.2695C32.3516 44.2695 31.7812 43.7852 31.7812 42.8164V42.4531C31.6719 42.6172 31.3711 42.8555 30.8789 43.168C30.3945 43.4805 30.0156 43.6992 29.7422 43.8242C29.0938 44.1211 28.6016 44.2695 28.2656 44.2695C27.9297 44.2695 27.6523 44.2539 27.4336 44.2227C27.2148 44.1992 26.9883 44.1484 26.7539 44.0703C26.5195 43.9922 26.2891 43.8828 26.0625 43.7422C25.8359 43.6016 25.6328 43.418 25.4531 43.1914C25.0547 42.6914 24.8555 42.0391 24.8555 41.2344C24.8555 40.125 25.25 39.3516 26.0391 38.9141C26.5391 38.625 27.0664 38.4453 27.6211 38.375C28.1836 38.3047 28.6953 38.25 29.1562 38.2109C30.0312 38.1328 30.9062 38.0859 31.7812 38.0703V35.6094C31.7812 34.9297 31.6953 34.4766 31.5234 34.25C31.2344 33.8516 30.7852 33.6523 30.1758 33.6523C28.8164 33.6523 27.4805 34.0938 26.168 34.9766L25.4883 33.957C27.3164 32.7383 28.9531 32.1289 30.3984 32.1289C31.6562 32.1289 32.5469 32.4766 33.0703 33.1719C33.4766 33.7109 33.6797 34.4766 33.6797 35.4688V41.6328C33.6797 42.2109 33.7891 42.5391 34.0078 42.6172C34.0859 42.6406 34.1875 42.6523 34.3125 42.6523C34.625 42.6523 35.1055 42.5312 35.7539 42.2891L35.9648 43.3906ZM31.7812 39.0547C29.5625 39.1406 28.1406 39.3633 27.5156 39.7227C27.0391 39.9961 26.8008 40.4375 26.8008 41.0469C26.8008 41.9297 27.1406 42.4727 27.8203 42.6758C28.0078 42.7305 28.2344 42.7578 28.5 42.7578C28.7734 42.7578 29.0898 42.7031 29.4492 42.5938C29.8086 42.4844 30.1406 42.3516 30.4453 42.1953C31.0234 41.9141 31.4688 41.6406 31.7812 41.375V39.0547ZM37.2305 38.3047C37.2305 37.4062 37.3828 36.5703 37.6875 35.7969C38 35.0234 38.4219 34.3672 38.9531 33.8281C40.0469 32.6953 41.3945 32.1289 42.9961 32.1289C44.8555 32.1289 46.3086 32.6797 47.3555 33.7812C48.3477 34.8359 48.8438 36.2148 48.8438 37.918C48.8438 39.8164 48.2812 41.3594 47.1562 42.5469C46.0625 43.6953 44.7109 44.2695 43.1016 44.2695C41.2656 44.2695 39.8125 43.7031 38.7422 42.5703C37.7344 41.5078 37.2305 40.0859 37.2305 38.3047ZM40.2305 34.8125C39.918 35.2109 39.6797 35.6797 39.5156 36.2188C39.3594 36.7578 39.2812 37.3438 39.2812 37.9766C39.2812 38.6016 39.3516 39.2148 39.4922 39.8164C39.6406 40.4102 39.8672 40.9375 40.1719 41.3984C40.8438 42.3984 41.8125 42.8984 43.0781 42.8984C44.2656 42.8984 45.1875 42.5078 45.8438 41.7266C46.4922 40.9609 46.8164 39.9258 46.8164 38.6211C46.8164 36.3086 46.1562 34.7539 44.8359 33.957C44.3438 33.6602 43.7617 33.5117 43.0898 33.5117C42.418 33.5117 41.8516 33.6289 41.3906 33.8633C40.9297 34.0898 40.543 34.4062 40.2305 34.8125ZM60.6094 60.4297C60.6094 61.0391 60.5 61.5664 60.2812 62.0117C60.0703 62.457 59.8047 62.8398 59.4844 63.1602C58.9141 63.7148 58.2031 64.1523 57.3516 64.4727C58.7266 64.7383 59.7344 65.1484 60.375 65.7031C61.25 66.4688 61.6875 67.6094 61.6875 69.125C61.6875 70.4844 61.1641 71.6133 60.1172 72.5117C58.9688 73.5039 57.3594 74 55.2891 74H47.1562V73.0039L48.9375 72.7344V57.5938L47.1562 57.3242V56.3281H54.9727C56.8164 56.3281 58.2305 56.7031 59.2148 57.4531C60.1445 58.1562 60.6094 59.1484 60.6094 60.4297ZM51.1406 65.3398V72.5938H54.457C57.0508 72.5938 58.6211 71.8867 59.168 70.4727C59.3398 70.0273 59.4258 69.543 59.4258 69.0195C59.4258 68.4883 59.332 68.0039 59.1445 67.5664C58.9648 67.1211 58.6914 66.7344 58.3242 66.4062C57.5273 65.6953 56.4297 65.3398 55.0312 65.3398H51.1406ZM51.1406 57.7461V64.0625H54.4805C56.1367 64.0625 57.293 63.5 57.9492 62.375C58.1992 61.9531 58.3242 61.4141 58.3242 60.7578C58.3242 59.7109 58.0352 58.9492 57.457 58.4727C56.8789 57.9883 55.9609 57.7461 54.7031 57.7461H51.1406ZM74.1445 73.3906C73.0039 73.9766 72.1797 74.2695 71.6719 74.2695C70.5312 74.2695 69.9609 73.7852 69.9609 72.8164V72.4531C69.8516 72.6172 69.5508 72.8555 69.0586 73.168C68.5742 73.4805 68.1953 73.6992 67.9219 73.8242C67.2734 74.1211 66.7812 74.2695 66.4453 74.2695C66.1094 74.2695 65.832 74.2539 65.6133 74.2227C65.3945 74.1992 65.168 74.1484 64.9336 74.0703C64.6992 73.9922 64.4688 73.8828 64.2422 73.7422C64.0156 73.6016 63.8125 73.418 63.6328 73.1914C63.2344 72.6914 63.0352 72.0391 63.0352 71.2344C63.0352 70.125 63.4297 69.3516 64.2188 68.9141C64.7188 68.625 65.2461 68.4453 65.8008 68.375C66.3633 68.3047 66.875 68.25 67.3359 68.2109C68.2109 68.1328 69.0859 68.0859 69.9609 68.0703V65.6094C69.9609 64.9297 69.875 64.4766 69.7031 64.25C69.4141 63.8516 68.9648 63.6523 68.3555 63.6523C66.9961 63.6523 65.6602 64.0938 64.3477 64.9766L63.668 63.957C65.4961 62.7383 67.1328 62.1289 68.5781 62.1289C69.8359 62.1289 70.7266 62.4766 71.25 63.1719C71.6562 63.7109 71.8594 64.4766 71.8594 65.4688V71.6328C71.8594 72.2109 71.9688 72.5391 72.1875 72.6172C72.2656 72.6406 72.3672 72.6523 72.4922 72.6523C72.8047 72.6523 73.2852 72.5312 73.9336 72.2891L74.1445 73.3906ZM69.9609 69.0547C67.7422 69.1406 66.3203 69.3633 65.6953 69.7227C65.2188 69.9961 64.9805 70.4375 64.9805 71.0469C64.9805 71.9297 65.3203 72.4727 66 72.6758C66.1875 72.7305 66.4141 72.7578 66.6797 72.7578C66.9531 72.7578 67.2695 72.7031 67.6289 72.5938C67.9883 72.4844 68.3203 72.3516 68.625 72.1953C69.2031 71.9141 69.6484 71.6406 69.9609 71.375V69.0547ZM81.2578 62.1289C82.2344 62.1289 83.207 62.3203 84.1758 62.7031V56.6914L82.3828 56.3281V55.3789L86.0742 54.5117V72.125C86.0742 72.4766 86.2695 72.6523 86.6602 72.6523C87.0586 72.6523 87.5547 72.5312 88.1484 72.2891L88.3945 73.3906C87.2773 73.9766 86.4414 74.2695 85.8867 74.2695C85.082 74.2695 84.5547 74.0078 84.3047 73.4844C84.2188 73.2969 84.1758 73.0742 84.1758 72.8164C83.5898 73.332 82.9648 73.7031 82.3008 73.9297C81.6367 74.1562 80.9453 74.2695 80.2266 74.2695C79.5156 74.2695 78.8281 74.1328 78.1641 73.8594C77.5 73.5859 76.9453 73.1953 76.5 72.6875C75.6328 71.6953 75.1992 70.293 75.1992 68.4805C75.1992 66.7461 75.7109 65.2891 76.7344 64.1094C77.8672 62.7891 79.375 62.1289 81.2578 62.1289ZM81.2578 72.6289C82.0469 72.6289 83.0195 72.2578 84.1758 71.5156V64.8594C83.5039 63.9609 82.4336 63.5117 80.9648 63.5117C79.832 63.5117 78.9141 63.9688 78.2109 64.8828C77.5547 65.75 77.2266 66.8672 77.2266 68.2344C77.2266 69.4766 77.5391 70.4961 78.1641 71.293C78.8516 72.1836 79.8828 72.6289 81.2578 72.6289Z" fill="black"/>
</svg>
